<?xml version="1.0" standalone="no"?>
<!DOCTYPE svg PUBLIC "-//W3C//DTD SVG 20010904//EN"
 "http://www.w3.org/TR/2001/REC-SVG-20010904/DTD/svg10.dtd">
<svg version="1.0" xmlns="http://www.w3.org/2000/svg"
 width="1367.000000pt" height="2935.000000pt" viewBox="0 0 1367.000000 2935.000000"
 preserveAspectRatio="xMidYMid meet">

<g transform="translate(0.000000,2940.000000) scale(0.100000,-0.100000)"
fill="#000000" stroke="none">
<path d="M84 29368 c6 -37 130 -924 256 -1833 45 -324 173 -1235 285 -2023
l202 -1433 -279 -887 -279 -887 26 -360 c74 -1035 353 -4302 400 -4691 32
-260 68 -332 483 -969 129 -198 235 -364 235 -370 0 -5 -151 -390 -335 -855
-185 -465 -383 -966 -442 -1115 l-106 -270 -35 -600 c-37 -641 -77 -1391 -95
-1775 -43 -962 -102 -2130 -181 -3590 l-42 -775 51 -195 c28 -107 159 -615
292 -1128 l241 -933 -36 -262 c-45 -333 -142 -988 -256 -1742 -328 -2170 -402
-2666 -397 -2670 2 -3 3056 -4 6784 -3 l6780 3 -63 425 c-88 587 -379 2477
-582 3778 l-169 1083 223 1522 c123 837 271 1844 329 2237 113 767 241 1667
251 1765 6 51 2 75 -25 160 -50 155 -191 544 -393 1085 l-185 495 159 3935
158 3935 -124 550 c-310 1374 -525 2346 -525 2371 0 8 173 223 385 477 l385
462 0 170 c0 302 -66 971 -295 3001 l-105 930 141 295 c157 327 304 637 325
687 l14 32 -6731 0 -6731 0 6 -32z"/>
</g>
</svg>
